<svg width="47" height="45" viewBox="0 0 47 45" fill="none" xmlns="http://www.w3.org/2000/svg">
<g clip-path="url(#clip0_34_86)">
<path d="M47 22.6367C47 33.8661 38.3951 43.1755 27.1621 44.8648V29.1842H32.6239L33.6638 22.6967H27.1621V18.4873C27.1621 16.7117 28.0707 14.983 30.9808 14.983H33.936V9.45922C33.936 9.45922 31.253 9.02047 28.6896 9.02047C23.3355 9.02047 19.8379 12.1273 19.8379 17.7505V22.6948H13.8865V29.1823H19.8379V44.863C8.60688 43.1717 0 33.8642 0 22.6367C0 10.2111 10.5221 0.136719 23.5 0.136719C36.4779 0.136719 47 10.2092 47 22.6367Z" fill="white"/>
</g>
<defs>
<clipPath id="clip0_34_86">
<rect width="47" height="45" fill="white"/>
</clipPath>
</defs>
</svg>
