<svg width="47" height="45" viewBox="0 0 47 45" fill="none" xmlns="http://www.w3.org/2000/svg">
<g clip-path="url(#clip0_34_77)">
<path d="M23.5 4.05375C29.7745 4.05375 30.5187 4.07625 32.996 4.185C35.5575 4.2975 38.1953 4.85625 40.0616 6.64313C41.9455 8.44687 42.5115 10.9481 42.629 13.4081C42.7426 15.78 42.7661 16.4925 42.7661 22.5C42.7661 28.5075 42.7426 29.22 42.629 31.5919C42.5135 34.0312 41.9162 36.5813 40.0616 38.3569C38.1777 40.1606 35.5673 40.7025 32.996 40.815C30.5187 40.9237 29.7745 40.9462 23.5 40.9462C17.2255 40.9462 16.4813 40.9237 14.004 40.815C11.4758 40.7044 8.77725 40.1194 6.93837 38.3569C5.06425 36.5625 4.4885 34.0369 4.371 31.5919C4.25742 29.22 4.23392 28.5075 4.23392 22.5C4.23392 16.4925 4.25742 15.78 4.371 13.4081C4.48654 10.9781 5.08971 8.41313 6.93837 6.64313C8.81837 4.84312 11.4406 4.2975 14.004 4.185C16.4813 4.07625 17.2255 4.05375 23.5 4.05375ZM23.5 0C17.1178 0 16.3168 0.02625 13.8102 0.135C10.1775 0.294375 6.57021 1.26187 3.94408 3.77625C1.30817 6.3 0.307458 9.74625 0.141 13.2225C0.0274167 15.6225 0 16.3894 0 22.5C0 28.6106 0.0274167 29.3775 0.141 31.7775C0.307458 35.2519 1.32187 38.715 3.94408 41.2238C6.57804 43.7456 10.1833 44.7056 13.8102 44.865C16.3168 44.9737 17.1178 45 23.5 45C29.8822 45 30.6832 44.9737 33.1898 44.865C36.8206 44.7056 40.4318 43.7363 43.0559 41.2238C45.6938 38.6981 46.6925 35.2537 46.859 31.7775C46.9726 29.3775 47 28.6106 47 22.5C47 16.3894 46.9726 15.6225 46.859 13.2225C46.6925 9.74438 45.6801 6.28875 43.0559 3.77625C40.4259 1.25812 36.8108 0.2925 33.1898 0.135C30.6832 0.02625 29.8822 0 23.5 0Z" fill="white"/>
<path d="M23.5 10.9463C16.8358 10.9463 11.4328 16.1194 11.4328 22.5C11.4328 28.8807 16.8358 34.0538 23.5 34.0538C30.1642 34.0538 35.5673 28.8807 35.5673 22.5C35.5673 16.1194 30.1642 10.9463 23.5 10.9463ZM23.5 30C19.174 30 15.6667 26.6419 15.6667 22.5C15.6667 18.3582 19.174 15 23.5 15C27.826 15 31.3333 18.3582 31.3333 22.5C31.3333 26.6419 27.826 30 23.5 30Z" fill="white"/>
<path d="M36.0451 13.1886C37.6025 13.1886 38.8651 11.9797 38.8651 10.4886C38.8651 8.99741 37.6025 7.78857 36.0451 7.78857C34.4876 7.78857 33.2251 8.99741 33.2251 10.4886C33.2251 11.9797 34.4876 13.1886 36.0451 13.1886Z" fill="white"/>
</g>
<defs>
<clipPath id="clip0_34_77">
<rect width="47" height="45" fill="white"/>
</clipPath>
</defs>
</svg>
