<svg width="47" height="45" viewBox="0 0 47 45" fill="none" xmlns="http://www.w3.org/2000/svg">
<path d="M34.7779 20.7158C35.0087 20.7949 35.2185 20.8828 35.4388 20.9619C38.5022 22.2012 40.7473 24.0557 41.9223 26.3584C43.5694 29.5664 43.7268 34.7783 38.7435 38.9443C34.9458 42.126 30.3192 43.5586 23.7833 43.6025H23.7518C16.3871 43.5586 10.7324 41.4844 6.92411 37.4326C3.5355 33.8291 1.79398 28.8105 1.73103 22.5264V22.5V22.4824C1.78349 16.1982 3.52501 11.1797 6.91362 7.57617C10.7219 3.52441 16.3871 1.4502 23.7518 1.40625H23.7833C31.1585 1.4502 36.8866 3.51562 40.8103 7.5498C42.7406 9.54492 44.1674 11.9443 45.0697 14.7305L40.8313 15.6797C40.0864 13.4121 38.9638 11.4785 37.4531 9.93164C34.3897 6.78516 29.7947 5.16797 23.7623 5.13281C17.7824 5.17676 13.2607 6.78516 10.3127 9.91406C7.56407 12.8408 6.13728 17.0771 6.08483 22.5C6.13728 27.9229 7.56407 32.1592 10.3127 35.0947C13.2502 38.2236 17.7824 39.832 23.7623 39.876C29.1547 39.8408 32.7217 38.7686 35.6906 36.2812C39.0793 33.4512 39.0163 29.9707 37.9357 27.8525C37.2958 26.6045 36.1418 25.5674 34.5891 24.7852C34.2009 27.1494 33.3511 29.0303 31.9978 30.4805C30.2038 32.3965 27.6545 33.4336 24.3708 33.583C21.8949 33.6973 19.5134 33.1963 17.667 32.1768C15.4848 30.9639 14.2049 29.1182 14.0685 26.9648C13.8063 22.7197 17.8138 19.6699 24.056 19.3711C26.2697 19.2656 28.3469 19.3447 30.2668 19.6172C30.015 18.3164 29.5009 17.2793 28.7351 16.5234C27.6859 15.4951 26.0493 14.9678 23.8882 14.959H23.8147C22.0732 14.959 19.7232 15.3633 18.223 17.2705L14.6141 15.1963C16.6284 12.6387 19.8911 11.2324 23.8252 11.2324H23.9092C30.4766 11.2676 34.3897 14.7041 34.7884 20.6982L34.7674 20.7158H34.7779ZM18.4118 26.7627C18.5482 28.9688 21.3913 29.9971 24.14 29.8652C26.8257 29.7422 29.8681 28.8633 30.3822 23.4316C28.9973 23.1768 27.4656 23.0449 25.829 23.0449C25.3255 23.0449 24.8219 23.0537 24.3183 23.0801C19.8176 23.291 18.3174 25.1191 18.4223 26.7539L18.4118 26.7627Z" fill="white"/>
</svg>
